<?xml version="1.0" encoding="UTF-8"?>
<svg id="Layer_1" xmlns="http://www.w3.org/2000/svg" version="1.1" xmlns:xlink="http://www.w3.org/1999/xlink" viewBox="0 0 1000 228">
  <!-- Generator: Adobe Illustrator 29.0.1, SVG Export Plug-In . SVG Version: 2.1.0 Build 192)  -->
  <defs>
    <style>
      .st0 {
        fill: #fff;
      }

      .st1 {
        fill: none;
      }

      .st2 {
        fill: #0b3b17;
      }

      .st3 {
        fill: #2dc552;
      }

      .st4 {
        fill: #f7f7f7;
      }
    </style>
    <clipPath id="clippath">
      <rect class="st1" x="3" y="5.82" width="214.37" height="214.37" rx="35.8" ry="35.8"/>
    </clipPath>
  </defs>
  <g>
    <path class="st0" d="M172,86.88c-3.1-7.33-7.43-13.98-12.89-19.79l-3.03,3.03c.17.18.33.35.49.53.48.53.96,1.07,1.43,1.62.21.24.41.48.61.73.35.43.7.86,1.04,1.29.28.35.55.71.82,1.07.27.36.53.72.79,1.08.65.91,1.28,1.84,1.89,2.79.36.57.72,1.14,1.06,1.72.23.39.45.78.68,1.17t0,0c.22.39.44.78.65,1.18.13.24.26.49.39.74.15.28.29.56.43.85.11.22.22.44.32.65.1.2.2.41.29.61.06.13.13.27.19.4.08.17.16.35.24.52.13.29.26.57.38.86.09.2.17.4.26.6.1.24.2.47.29.71,0,.02.01.03.02.04.08.18.15.37.22.55.03.08.06.16.09.24.08.19.15.38.22.57.06.15.12.31.18.47.06.16.12.32.18.48.08.23.17.46.25.69.1.29.2.58.3.87.1.29.19.58.29.88,0,0,0,.02,0,.03.19.6.37,1.21.54,1.82,0,0,0,0,0,.01.38,1.33.71,2.68,1,4.05.04.2.08.39.12.59.06.32.12.63.18.95.04.23.08.46.12.69s.08.46.12.69c.06.39.12.79.18,1.19.04.3.08.61.12.91.08.63.15,1.26.21,1.89.02.25.05.5.07.76.05.57.09,1.14.12,1.71.04.7.07,1.41.09,2.12.01.51.02,1.03.02,1.55s0,1.04-.02,1.55c-.02.71-.05,1.41-.09,2.12-.03.57-.07,1.14-.12,1.71-.02.26-.05.51-.07.76-.06.63-.13,1.26-.21,1.89-.04.3-.08.61-.12.91-.06.4-.12.79-.18,1.19-.04.23-.08.46-.12.69-.04.23-.08.46-.12.69-.06.32-.12.63-.18.95-.04.2-.08.39-.12.59-.29,1.37-.62,2.72-1,4.05,0,0,0,0,0,.01-.17.61-.35,1.22-.54,1.82,0,0,0,.02,0,.03-.09.29-.19.59-.29.88-.1.29-.2.58-.3.87-.08.23-.16.46-.25.69-.06.16-.12.32-.18.48-.06.15-.12.31-.18.47-.07.19-.15.38-.22.57-.03.08-.06.16-.09.24-.07.18-.15.37-.22.55,0,.01-.01.03-.02.04-.09.24-.19.47-.29.71-.08.2-.17.4-.26.6-.12.29-.25.58-.38.86-.08.18-.16.35-.24.52-.06.14-.12.27-.19.4-.09.2-.19.41-.29.61-.11.22-.21.44-.32.65-.14.29-.29.57-.43.85-.13.25-.26.49-.39.74-.21.4-.43.79-.65,1.18t0,0c-.22.39-.45.78-.68,1.17-.34.58-.7,1.16-1.06,1.72-.6.95-1.23,1.88-1.89,2.79-.26.36-.52.72-.79,1.08-.27.36-.54.72-.82,1.07-.34.44-.69.87-1.04,1.29-.2.24-.41.49-.61.73-.47.55-.95,1.09-1.43,1.62-.16.18-.32.35-.49.53l3.03,3.03c5.45-5.81,9.79-12.45,12.89-19.79,3.5-8.27,5.28-17.06,5.28-26.12s-1.77-17.84-5.28-26.12ZM62.36,153.72c-.21-.24-.41-.48-.61-.73-.35-.43-.7-.86-1.04-1.29-.28-.35-.55-.71-.82-1.07-.27-.36-.53-.72-.79-1.08-.65-.91-1.28-1.84-1.89-2.79-.36-.57-.72-1.14-1.06-1.72-.23-.39-.45-.78-.68-1.17t0,0c-.22-.39-.44-.78-.65-1.18-.13-.24-.26-.49-.39-.74-.15-.28-.29-.56-.43-.85-.11-.22-.22-.44-.32-.65-.1-.2-.2-.41-.29-.61-.06-.13-.13-.27-.19-.4-.08-.17-.16-.35-.24-.52-.13-.29-.26-.57-.38-.86-.09-.2-.17-.4-.26-.6-.1-.24-.2-.47-.29-.71,0-.02-.01-.03-.02-.04-.08-.18-.15-.37-.22-.55-.03-.08-.06-.16-.09-.24-.08-.19-.15-.38-.22-.57-.06-.15-.12-.31-.18-.47-.06-.16-.12-.32-.18-.48-.08-.23-.17-.46-.25-.69-.1-.29-.2-.58-.3-.87-.1-.29-.19-.58-.29-.88,0,0,0-.02,0-.03-.19-.6-.37-1.21-.54-1.82,0,0,0,0,0-.01-.38-1.33-.71-2.68-1-4.05-.04-.2-.08-.39-.12-.59-.06-.32-.12-.63-.18-.95-.04-.23-.08-.46-.12-.69-.04-.23-.08-.46-.12-.69-.06-.39-.12-.79-.18-1.19-.04-.3-.08-.61-.12-.91-.08-.63-.15-1.26-.21-1.89-.02-.25-.05-.5-.07-.76-.05-.57-.09-1.14-.12-1.71-.04-.7-.07-1.41-.09-2.12-.01-.51-.02-1.03-.02-1.55s0-1.04.02-1.55c.02-.71.05-1.41.09-2.12.03-.57.07-1.14.12-1.71.02-.26.05-.51.07-.76.06-.63.13-1.26.21-1.89.04-.3.08-.61.12-.91.06-.4.12-.79.18-1.19.04-.23.08-.46.12-.69s.08-.46.12-.69c.06-.32.12-.63.18-.95.04-.2.08-.39.12-.59.29-1.37.62-2.72,1-4.05,0,0,0,0,0-.01.17-.61.35-1.22.54-1.82,0,0,0-.02,0-.03.09-.29.19-.59.29-.88.1-.29.2-.58.3-.87.08-.23.16-.46.25-.69.06-.16.12-.32.18-.48.06-.15.12-.31.18-.47.07-.19.15-.38.22-.57.03-.08.06-.16.09-.24.07-.18.15-.37.22-.55,0-.01.01-.03.02-.04.09-.24.19-.47.29-.71.08-.2.17-.4.26-.6.12-.29.25-.58.38-.86.08-.18.16-.35.24-.52.06-.14.12-.27.19-.4.09-.2.19-.41.29-.61.11-.22.21-.44.32-.65.14-.29.29-.57.43-.85.13-.25.26-.49.39-.74.21-.4.43-.79.65-1.18t0,0c.22-.39.45-.78.68-1.17.34-.58.7-1.16,1.06-1.72.6-.95,1.23-1.88,1.89-2.79.26-.36.53-.72.79-1.08.27-.36.54-.72.82-1.07.34-.44.69-.87,1.04-1.29.2-.24.41-.49.61-.73.47-.55.95-1.09,1.43-1.62.16-.18.32-.35.49-.53l-3.03-3.03c-5.45,5.81-9.79,12.45-12.89,19.79-3.5,8.27-5.28,17.06-5.28,26.12s1.77,17.84,5.28,26.12c3.1,7.33,7.43,13.98,12.89,19.79l3.03-3.03c-.17-.18-.33-.35-.49-.53-.48-.53-.96-1.07-1.43-1.62Z"/>
    <path class="st2" d="M156.09,161.94c-5.81,5.45-12.45,9.79-19.79,12.89-6.96,2.95-14.29,4.67-21.83,5.14-.29.02-.58.04-.87.05h0s0,0,0,0c0,0-.02,0-.03,0-1.12.06-2.25.08-3.38.08s-2.26-.03-3.38-.08c0,0-.02,0-.03,0,0,0,0,0,0,0h0c-.29-.01-.58-.03-.87-.05-7.54-.47-14.87-2.2-21.83-5.14-7.33-3.1-13.98-7.43-19.79-12.89l3.03-3.03,2.84-2.84c9.52,8.86,21.97,14.59,35.74,15.58v-50c.14.07.28.14.43.2,1.18.52,2.49.8,3.86.8s2.68-.29,3.86-.8c.15-.06.29-.13.43-.2v50c13.77-.99,26.23-6.72,35.74-15.58l2.84,2.84,3.03,3.03Z"/>
    <path class="st2" d="M156.09,64.06l-5.87,5.87c-9.52-8.86-21.97-14.59-35.74-15.58v50c-.14-.07-.28-.14-.43-.2-1.18-.52-2.49-.8-3.86-.8s-2.68.29-3.86.8c-.15.06-.29.13-.43.2v-50c-13.77.99-26.23,6.72-35.74,15.58l-5.87-5.87c5.81-5.45,12.45-9.79,19.79-12.89,6.96-2.95,14.29-4.67,21.83-5.14.29-.02.58-.04.87-.05,1.13-.06,2.27-.09,3.41-.09s2.28.03,3.41.09c.29.01.58.03.87.05,7.54.47,14.87,2.2,21.83,5.14,7.33,3.1,13.98,7.43,19.79,12.89Z"/>
    <g>
      <path class="st0" d="M112.33,5.82v35.62c-.71-.02-1.43-.03-2.14-.03s-1.43.01-2.14.03V5.82h4.29Z"/>
      <path class="st0" d="M110.18,184.6c.72,0,1.43-.01,2.14-.03v35.62h-4.29v-35.62c.71.02,1.43.03,2.14.03Z"/>
    </g>
    <path class="st4" d="M115.54,113c0,2.2-1.32,4.09-3.22,4.91-.66.29-1.38.45-2.14.45s-1.49-.16-2.14-.45c-1.89-.83-3.22-2.72-3.22-4.91s1.32-4.09,3.22-4.91c.66-.29,1.38-.45,2.14-.45s1.49.16,2.14.45c1.89.83,3.22,2.72,3.22,4.91Z"/>
    <path class="st4" d="M48.73,126.04c.28,1.36.62,2.71,1,4.05-.38-1.33-.71-2.68-1-4.05ZM48.73,99.96c.29-1.37.62-2.72,1-4.05-.38,1.34-.71,2.69-1,4.05ZM57.21,146.76c.6.95,1.23,1.88,1.89,2.79-.65-.91-1.28-1.84-1.89-2.79ZM57.21,79.24c.6-.95,1.23-1.88,1.89-2.79-.66.91-1.29,1.84-1.89,2.79ZM62.36,153.72c.47.55.94,1.09,1.43,1.62-.48-.53-.96-1.07-1.43-1.62ZM62.36,72.28c.47-.55.95-1.09,1.43-1.62-.49.53-.96,1.07-1.43,1.62ZM170.64,95.91c.38,1.33.71,2.68,1,4.05-.28-1.36-.62-2.71-1-4.05ZM170.64,130.09c.38-1.34.71-2.69,1-4.05-.29,1.37-.62,2.72-1,4.05ZM161.27,76.45c.65.91,1.28,1.84,1.89,2.79-.6-.95-1.23-1.88-1.89-2.79ZM161.27,149.55c.66-.91,1.29-1.84,1.89-2.79-.6.95-1.23,1.88-1.89,2.79ZM156.57,70.66c.48.53.96,1.07,1.43,1.62-.47-.55-.94-1.09-1.43-1.62ZM156.57,155.34c.49-.53.96-1.07,1.43-1.62-.47.55-.95,1.09-1.43,1.62Z"/>
    <path class="st4" d="M115.54,113c0,2.2-1.32,4.09-3.22,4.91-.66.29-1.38.45-2.14.45s-1.49-.16-2.14-.45c-1.89-.83-3.22-2.72-3.22-4.91s1.32-4.09,3.22-4.91c.66-.29,1.38-.45,2.14-.45s1.49.16,2.14.45c1.89.83,3.22,2.72,3.22,4.91Z"/>
    <path class="st0" d="M104.82,113c0-2.2,1.32-4.09,3.22-4.91.66-.29,1.38-.45,2.14-.45s1.49.16,2.14.45c1.89.83,3.22,2.72,3.22,4.91s-1.32,4.09-3.22,4.91c-.66.29-1.38.45-2.14.45s-1.49-.16-2.14-.45c-1.89-.83-3.22-2.72-3.22-4.91Z"/>
  </g>
  <path class="st3" d="M271.92,98.46v-21.81h14.54v21.81h14.54v14.54h-14.54v7.27c0,4.01,1.42,7.44,4.26,10.28,2.84,2.84,6.26,4.26,10.28,4.26v14.54c-3.86,0-7.57-.74-11.13-2.22-3.56-1.48-6.7-3.58-9.43-6.3-2.73-2.73-4.83-5.87-6.3-9.43s-2.21-7.27-2.21-11.13v-7.27h-7.27v-14.54h7.27Z"/>
  <path class="st3" d="M347.73,145.42c-1.1.64-2.23,1.21-3.41,1.7-3.56,1.48-7.27,2.22-11.13,2.22s-7.57-.74-11.13-2.22c-3.56-1.48-6.7-3.58-9.43-6.3s-4.83-5.87-6.3-9.43-2.21-7.27-2.21-11.13.74-7.57,2.21-11.13c1.48-3.56,3.58-6.7,6.3-9.43s5.87-4.83,9.43-6.3c3.56-1.48,7.27-2.22,11.13-2.22s7.57.74,11.13,2.22c3.56,1.48,6.7,3.58,9.43,6.3s4.83,5.87,6.3,9.43c1.48,3.56,2.22,7.27,2.22,11.13v29.07h-14.54v-3.92ZM333.19,105.73c-4.01,0-7.44,1.42-10.28,4.26-2.84,2.84-4.26,6.27-4.26,10.28s1.42,7.44,4.26,10.28c2.84,2.84,6.27,4.26,10.28,4.26s7.44-1.42,10.28-4.26c2.84-2.84,4.26-6.27,4.26-10.28s-1.42-7.44-4.26-10.28-6.27-4.26-10.28-4.26Z"/>
  <path class="st3" d="M386.57,127.08v22.26h-14.54v-72.68h14.54v36.8l23.62-22.26h19.99l-29.07,29.07,29.07,29.07h-19.99l-23.62-22.26Z"/>
  <path class="st3" d="M433.19,91.19v58.15h14.53v-58.15h-14.53Z"/>
  <path class="st3" d="M471.97,120.27v29.07h-14.54v-29.07c0-3.86.74-7.57,2.21-11.13,1.48-3.56,3.58-6.7,6.3-9.43s5.87-4.83,9.43-6.3c3.56-1.48,7.27-2.22,11.13-2.22s7.57.74,11.13,2.22c3.56,1.48,6.7,3.58,9.43,6.3.42.42.83.85,1.25,1.31.42-.45.83-.89,1.25-1.31,2.73-2.73,5.87-4.83,9.43-6.3,3.56-1.48,7.27-2.22,11.13-2.22s7.57.74,11.13,2.22c3.56,1.48,6.7,3.58,9.43,6.3,2.73,2.73,4.83,5.87,6.3,9.43,1.48,3.56,2.22,7.27,2.22,11.13v29.07h-14.54v-29.07c0-4.01-1.42-7.44-4.26-10.28-2.84-2.84-6.27-4.26-10.28-4.26s-7.44,1.42-10.28,4.26c-2.84,2.84-4.26,6.27-4.26,10.28v29.07h-14.54v-29.07c0-4.01-1.42-7.44-4.26-10.28s-6.27-4.26-10.28-4.26-7.44,1.42-10.28,4.26c-2.84,2.84-4.26,6.27-4.26,10.28Z"/>
  <path class="st3" d="M569.08,91.19v58.15h14.53v-58.15h-14.53Z"/>
  <path class="st3" d="M607.86,120.27v29.07h-14.54v-29.07c0-3.86.74-7.57,2.21-11.13,1.48-3.56,3.58-6.7,6.3-9.43s5.87-4.83,9.43-6.3c3.56-1.48,7.27-2.22,11.13-2.22s7.57.74,11.13,2.22c3.56,1.48,6.7,3.58,9.43,6.3,2.73,2.73,4.83,5.87,6.3,9.43,1.48,3.56,2.22,7.27,2.22,11.13v29.07h-14.54v-29.07c0-4.01-1.42-7.44-4.26-10.28-2.84-2.84-6.27-4.26-10.28-4.26s-7.44,1.42-10.28,4.26c-2.84,2.84-4.26,6.27-4.26,10.28Z"/>
  <path class="st3" d="M657.66,120.27v-43.61h14.54v43.61c0,4.01,1.42,7.44,4.26,10.28,2.84,2.84,6.26,4.26,10.28,4.26v14.54c-3.86,0-7.57-.74-11.13-2.22-3.56-1.48-6.7-3.58-9.43-6.3s-4.83-5.87-6.3-9.43c-1.48-3.56-2.21-7.27-2.21-11.13Z"/>
  <path class="st3" d="M729.72,145.42c-1.1.64-2.23,1.21-3.41,1.7-3.56,1.48-7.27,2.22-11.13,2.22s-7.57-.74-11.13-2.22c-3.56-1.48-6.7-3.58-9.43-6.3s-4.83-5.87-6.3-9.43c-1.48-3.56-2.21-7.27-2.21-11.13s.74-7.57,2.21-11.13c1.48-3.56,3.58-6.7,6.3-9.43s5.87-4.83,9.43-6.3c3.56-1.48,7.27-2.22,11.13-2.22s7.57.74,11.13,2.22c3.56,1.48,6.7,3.58,9.43,6.3,2.73,2.73,4.83,5.87,6.3,9.43,1.48,3.56,2.22,7.27,2.22,11.13v29.07h-14.54v-3.92ZM715.18,105.73c-4.01,0-7.44,1.42-10.28,4.26-2.84,2.84-4.26,6.27-4.26,10.28s1.42,7.44,4.26,10.28c2.84,2.84,6.26,4.26,10.28,4.26s7.44-1.42,10.28-4.26c2.84-2.84,4.26-6.27,4.26-10.28s-1.42-7.44-4.26-10.28c-2.84-2.84-6.27-4.26-10.28-4.26Z"/>
  <path class="st2" d="M760.61,149.34c-2.5,0-4.64-.89-6.42-2.67-1.78-1.78-2.67-3.92-2.67-6.42s.89-4.64,2.67-6.42,3.92-2.67,6.42-2.67,4.64.89,6.42,2.67c1.78,1.78,2.67,3.92,2.67,6.42s-.89,4.64-2.67,6.42-3.92,2.67-6.42,2.67Z"/>
  <path class="st3" d="M818.53,127.76l12.44,7.44c-1.21,2.04-2.67,3.92-4.37,5.62-2.73,2.73-5.87,4.83-9.43,6.3-3.56,1.48-7.27,2.22-11.13,2.22s-7.57-.74-11.13-2.22c-3.56-1.48-6.7-3.58-9.43-6.3s-4.83-5.87-6.3-9.43c-1.48-3.56-2.21-7.27-2.21-11.13s.74-7.57,2.21-11.13c1.48-3.56,3.58-6.7,6.3-9.43s5.87-4.83,9.43-6.3c3.56-1.48,7.27-2.22,11.13-2.22s7.57.74,11.13,2.22c3.56,1.48,6.7,3.58,9.43,6.3,1.7,1.7,3.16,3.58,4.37,5.62l-12.44,7.44c-.61-.98-1.34-1.91-2.21-2.78-2.84-2.84-6.27-4.26-10.28-4.26s-7.44,1.42-10.28,4.26c-2.84,2.84-4.26,6.27-4.26,10.28s1.42,7.44,4.26,10.28c2.84,2.84,6.26,4.26,10.28,4.26s7.44-1.42,10.28-4.26c.87-.87,1.61-1.8,2.21-2.78Z"/>
  <path class="st3" d="M860.55,149.34c-3.86,0-7.57-.74-11.13-2.22-3.56-1.48-6.7-3.58-9.43-6.3s-4.83-5.87-6.3-9.43c-1.48-3.56-2.21-7.27-2.21-11.13s.74-7.57,2.21-11.13c1.48-3.56,3.58-6.7,6.3-9.43s5.87-4.83,9.43-6.3c3.56-1.48,7.27-2.22,11.13-2.22s7.57.74,11.13,2.22c3.56,1.48,6.7,3.58,9.43,6.3,2.73,2.73,4.83,5.87,6.3,9.43,1.48,3.56,2.22,7.27,2.22,11.13s-.74,7.57-2.22,11.13c-1.48,3.56-3.58,6.7-6.3,9.43-2.73,2.73-5.87,4.83-9.43,6.3-3.56,1.48-7.27,2.22-11.13,2.22ZM860.55,134.81c4.01,0,7.44-1.42,10.28-4.26,2.84-2.84,4.26-6.27,4.26-10.28s-1.42-7.44-4.26-10.28c-2.84-2.84-6.27-4.26-10.28-4.26s-7.44,1.42-10.28,4.26c-2.84,2.84-4.26,6.27-4.26,10.28s1.42,7.44,4.26,10.28c2.84,2.84,6.26,4.26,10.28,4.26Z"/>
  <path class="st3" d="M909.78,120.27v29.07h-14.54v-29.07c0-3.86.74-7.57,2.21-11.13,1.48-3.56,3.58-6.7,6.3-9.43s5.87-4.83,9.43-6.3c3.56-1.48,7.27-2.22,11.13-2.22s7.57.74,11.13,2.22c3.56,1.48,6.7,3.58,9.43,6.3.42.42.83.85,1.25,1.31.42-.45.83-.89,1.25-1.31,2.73-2.73,5.87-4.83,9.43-6.3,3.56-1.48,7.27-2.22,11.13-2.22s7.57.74,11.13,2.22c3.56,1.48,6.7,3.58,9.43,6.3s4.83,5.87,6.3,9.43c1.48,3.56,2.21,7.27,2.21,11.13v29.07h-14.54v-29.07c0-4.01-1.42-7.44-4.26-10.28-2.84-2.84-6.27-4.26-10.28-4.26s-7.44,1.42-10.28,4.26c-2.84,2.84-4.26,6.27-4.26,10.28v29.07h-14.54v-29.07c0-4.01-1.42-7.44-4.26-10.28-2.84-2.84-6.27-4.26-10.28-4.26s-7.44,1.42-10.28,4.26c-2.84,2.84-4.26,6.27-4.26,10.28Z"/>
</svg>