<?xml version="1.0" encoding="UTF-8"?>
<svg id="Layer_1" xmlns="http://www.w3.org/2000/svg" version="1.1" viewBox="0 0 1000 109">
  <!-- Generator: Adobe Illustrator 29.0.1, SVG Export Plug-In . SVG Version: 2.1.0 Build 192)  -->
  <defs>
    <style>
      .st0 {
        fill: #0b3b17;
      }

      .st1 {
        fill: #2dc552;
      }
    </style>
  </defs>
  <path class="st0" d="M14.85,35.31V5.77h19.69v29.54h19.69v19.69h-19.69v9.85c0,5.43,1.92,10.08,5.77,13.92,3.85,3.85,8.49,5.77,13.92,5.77v19.69c-5.23,0-10.26-1-15.08-3-4.82-2-9.08-4.84-12.77-8.54-3.69-3.69-6.54-7.95-8.54-12.77s-3-9.85-3-15.08v-9.85H5v-19.69h9.85Z"/>
  <path class="st0" d="M117.53,98.92c-1.49.87-3.03,1.64-4.61,2.31-4.82,2-9.85,3-15.08,3s-10.26-1-15.08-3c-4.82-2-9.08-4.84-12.77-8.54s-6.54-7.95-8.54-12.77-3-9.85-3-15.08,1-10.26,3-15.08c2-4.82,4.85-9.08,8.54-12.77s7.95-6.54,12.77-8.54c4.82-2,9.85-3,15.08-3s10.26,1,15.08,3c4.82,2,9.08,4.84,12.77,8.54,3.69,3.69,6.54,7.95,8.54,12.77,2,4.82,3,9.85,3,15.08v39.38h-19.69v-5.31ZM97.84,45.15c-5.44,0-10.08,1.92-13.92,5.77-3.85,3.85-5.77,8.49-5.77,13.92s1.92,10.08,5.77,13.92c3.85,3.85,8.49,5.77,13.92,5.77s10.08-1.92,13.92-5.77c3.85-3.85,5.77-8.49,5.77-13.92s-1.92-10.08-5.77-13.92c-3.85-3.85-8.49-5.77-13.92-5.77Z"/>
  <path class="st0" d="M170.14,74.08v30.15h-19.69V5.77h19.69v49.84l32-30.15h27.07l-39.38,39.38,39.38,39.38h-27.07l-32-30.15Z"/>
  <path class="st0" d="M233.29,25.46v78.76h19.69V25.46h-19.69Z"/>
  <path class="st0" d="M285.82,64.85v39.38h-19.69v-39.38c0-5.23,1-10.26,3-15.08,2-4.82,4.85-9.08,8.54-12.77,3.69-3.69,7.95-6.54,12.77-8.54,4.82-2,9.85-3,15.08-3s10.26,1,15.08,3c4.82,2,9.08,4.84,12.77,8.54.56.57,1.13,1.15,1.69,1.77.56-.61,1.13-1.2,1.69-1.77,3.69-3.69,7.95-6.54,12.77-8.54,4.82-2,9.85-3,15.08-3s10.26,1,15.07,3c4.82,2,9.08,4.84,12.77,8.54,3.69,3.69,6.54,7.95,8.54,12.77,2,4.82,3,9.85,3,15.08v39.38h-19.69v-39.38c0-5.43-1.92-10.08-5.77-13.92-3.85-3.85-8.49-5.77-13.92-5.77s-10.08,1.92-13.92,5.77c-3.85,3.85-5.77,8.49-5.77,13.92v39.38h-19.69v-39.38c0-5.43-1.92-10.08-5.77-13.92-3.85-3.85-8.49-5.77-13.92-5.77s-10.08,1.92-13.92,5.77c-3.85,3.85-5.77,8.49-5.77,13.92Z"/>
  <path class="st0" d="M417.36,25.46v78.76h19.69V25.46h-19.69Z"/>
  <path class="st0" d="M469.89,64.85v39.38h-19.69v-39.38c0-5.23,1-10.26,3-15.08,2-4.82,4.85-9.08,8.54-12.77,3.69-3.69,7.95-6.54,12.77-8.54,4.82-2,9.85-3,15.08-3s10.26,1,15.08,3c4.82,2,9.08,4.84,12.77,8.54,3.69,3.69,6.54,7.95,8.54,12.77,2,4.82,3,9.85,3,15.08v39.38h-19.69v-39.38c0-5.43-1.92-10.08-5.77-13.92-3.85-3.85-8.49-5.77-13.92-5.77s-10.08,1.92-13.92,5.77c-3.85,3.85-5.77,8.49-5.77,13.92Z"/>
  <path class="st0" d="M537.34,64.85V5.77h19.69v59.07c0,5.43,1.92,10.08,5.77,13.92,3.85,3.85,8.49,5.77,13.92,5.77v19.69c-5.23,0-10.26-1-15.08-3-4.82-2-9.08-4.84-12.77-8.54-3.69-3.69-6.54-7.95-8.54-12.77-2-4.82-3-9.85-3-15.08Z"/>
  <path class="st0" d="M634.95,98.92c-1.49.87-3.03,1.64-4.62,2.31-4.82,2-9.84,3-15.08,3s-10.26-1-15.08-3c-4.82-2-9.08-4.84-12.77-8.54-3.69-3.69-6.54-7.95-8.54-12.77-2-4.82-3-9.85-3-15.08s1-10.26,3-15.08c2-4.82,4.85-9.08,8.54-12.77s7.95-6.54,12.77-8.54c4.82-2,9.85-3,15.08-3s10.26,1,15.08,3c4.82,2,9.08,4.84,12.77,8.54,3.69,3.69,6.54,7.95,8.54,12.77,2,4.82,3,9.85,3,15.08v39.38h-19.69v-5.31ZM615.26,45.15c-5.44,0-10.08,1.92-13.92,5.77-3.85,3.85-5.77,8.49-5.77,13.92s1.92,10.08,5.77,13.92c3.85,3.85,8.49,5.77,13.92,5.77s10.08-1.92,13.92-5.77c3.85-3.85,5.77-8.49,5.77-13.92s-1.92-10.08-5.77-13.92c-3.85-3.85-8.49-5.77-13.92-5.77Z"/>
  <path class="st1" d="M676.8,104.23c-3.39,0-6.28-1.2-8.69-3.62-2.41-2.41-3.62-5.31-3.62-8.69s1.2-6.28,3.62-8.69,5.31-3.62,8.69-3.62,6.28,1.21,8.69,3.62c2.41,2.41,3.62,5.31,3.62,8.69s-1.21,6.28-3.62,8.69-5.31,3.62-8.69,3.62Z"/>
  <path class="st0" d="M755.25,75l16.84,10.08c-1.64,2.77-3.62,5.31-5.92,7.62-3.69,3.69-7.95,6.54-12.77,8.54-4.82,2-9.84,3-15.08,3s-10.26-1-15.08-3c-4.82-2-9.08-4.84-12.77-8.54s-6.54-7.95-8.54-12.77c-2-4.82-3-9.85-3-15.08s1-10.26,3-15.08c2-4.82,4.85-9.08,8.54-12.77s7.95-6.54,12.77-8.54c4.82-2,9.85-3,15.08-3s10.26,1,15.08,3c4.82,2,9.08,4.84,12.77,8.54,2.31,2.31,4.28,4.85,5.92,7.62l-16.84,10.08c-.82-1.33-1.82-2.59-3-3.77-3.85-3.85-8.49-5.77-13.92-5.77s-10.08,1.92-13.92,5.77c-3.85,3.85-5.77,8.49-5.77,13.92s1.92,10.08,5.77,13.92c3.85,3.85,8.49,5.77,13.92,5.77s10.08-1.92,13.92-5.77c1.18-1.18,2.18-2.43,3-3.77Z"/>
  <path class="st0" d="M812.17,104.23c-5.23,0-10.26-1-15.08-3-4.82-2-9.08-4.84-12.77-8.54-3.69-3.69-6.54-7.95-8.54-12.77-2-4.82-3-9.85-3-15.08s1-10.26,3-15.08c2-4.82,4.85-9.08,8.54-12.77s7.95-6.54,12.77-8.54c4.82-2,9.85-3,15.08-3s10.26,1,15.08,3c4.82,2,9.08,4.84,12.77,8.54,3.69,3.69,6.54,7.95,8.54,12.77,2,4.82,3,9.85,3,15.08s-1,10.26-3,15.08c-2,4.82-4.84,9.08-8.54,12.77-3.69,3.69-7.95,6.54-12.77,8.54-4.82,2-9.84,3-15.08,3ZM812.17,84.54c5.43,0,10.08-1.92,13.92-5.77,3.85-3.85,5.77-8.49,5.77-13.92s-1.92-10.08-5.77-13.92c-3.85-3.85-8.49-5.77-13.92-5.77s-10.08,1.92-13.92,5.77c-3.85,3.85-5.77,8.49-5.77,13.92s1.92,10.08,5.77,13.92c3.85,3.85,8.49,5.77,13.92,5.77Z"/>
  <path class="st0" d="M878.86,64.85v39.38h-19.69v-39.38c0-5.23,1-10.26,3-15.08,2-4.82,4.85-9.08,8.54-12.77s7.95-6.54,12.77-8.54c4.82-2,9.85-3,15.08-3s10.26,1,15.08,3c4.82,2,9.08,4.84,12.77,8.54.56.57,1.13,1.15,1.69,1.77.56-.61,1.13-1.2,1.69-1.77,3.69-3.69,7.95-6.54,12.77-8.54,4.82-2,9.85-3,15.08-3s10.26,1,15.08,3c4.82,2,9.08,4.84,12.77,8.54,3.69,3.69,6.54,7.95,8.54,12.77,2,4.82,3,9.85,3,15.08v39.38h-19.69v-39.38c0-5.43-1.92-10.08-5.77-13.92-3.85-3.85-8.49-5.77-13.92-5.77s-10.08,1.92-13.92,5.77c-3.85,3.85-5.77,8.49-5.77,13.92v39.38h-19.69v-39.38c0-5.43-1.92-10.08-5.77-13.92-3.85-3.85-8.49-5.77-13.92-5.77s-10.08,1.92-13.92,5.77c-3.85,3.85-5.77,8.49-5.77,13.92Z"/>
</svg>