<svg width="1092" height="229" viewBox="0 0 1092 229" fill="none" xmlns="http://www.w3.org/2000/svg">
<g clip-path="url(#clip0_52_61)">
<path d="M89.0038 117.042C89.0038 76.6727 121.727 43.9492 162.097 43.9492C164.862 43.9492 167.579 44.1175 170.272 44.4058C169.719 43.8047 167.482 42.5304 166.713 42.1697C126.175 22.7905 88.5951 50.032 68.9033 67.4637C65.4891 70.4932 66.0661 75.879 69.961 78.2593C78.809 83.6692 70.1293 108.169 54.6692 100.812C53.7074 100.355 52.2167 99.4176 51.2309 98.961C29.1828 88.502 -1.61716 114.036 0.065895 116.777C2.37409 120.528 20.9358 98.8408 68.6866 154.598C101.122 192.419 133.725 195.208 153.561 192.924C155.533 192.707 160.534 191.457 161.568 190.111C121.439 189.822 89.0038 157.219 89.0038 117.042Z" fill="black"/>
<path d="M222.927 89.2715C219.321 81.3851 214.32 74.3644 208.02 68.4256C201.504 62.2704 193.931 57.5578 185.467 54.4081C181.259 52.8452 176.932 51.6911 172.556 50.9939C171.353 50.8015 170.127 50.6332 168.925 50.513C167.699 50.3928 166.473 50.2966 165.246 50.2245C164.02 50.1764 162.794 50.1523 161.592 50.1523C160.39 50.1523 159.187 50.2004 158.009 50.2726C156.807 50.3447 155.629 50.4649 154.427 50.5851C153.249 50.7296 152.047 50.8977 150.868 51.0903C149.69 51.2826 148.512 51.5231 147.334 51.7873C146.156 52.052 145.002 52.3403 143.847 52.6769C143.319 52.8212 142.814 52.9895 142.285 53.1338C135.913 55.1051 129.902 58.0146 124.372 61.7895C112.927 69.6037 104.296 80.5914 99.439 93.6231C96.289 102.087 94.8707 110.887 95.2554 119.855C95.616 128.487 97.6357 136.878 101.242 144.764C104.849 152.651 109.85 159.671 116.149 165.61C122.665 171.765 130.239 176.478 138.702 179.628C146.228 182.441 154.114 183.859 162.073 183.859C162.265 183.859 162.433 183.859 162.626 183.859C169.166 183.811 175.633 182.802 181.909 180.854C188.28 178.882 194.291 175.973 199.821 172.198C211.266 164.384 219.898 153.396 224.755 140.365C227.905 131.901 229.323 123.077 228.938 114.133C228.529 105.549 226.51 97.1818 222.927 89.2715ZM162.097 55.442C162.145 55.442 162.193 55.442 162.217 55.442C156.086 56.7163 150.075 59.0245 144.425 62.3425C144.088 62.5349 143.751 62.7512 143.415 62.9436C139.904 62.607 134.831 62.8715 128.724 65.2758C138.582 58.9283 150.171 55.442 162.097 55.442ZM103.045 134.474C99.3907 122.115 99.559 108.506 104.416 95.4985C106.387 90.2332 109.008 85.3761 112.134 81.0245C112.182 83.0922 112.711 85.713 114.273 90.2089C110.282 97.9029 108.07 106.679 107.83 115.936C107.71 120.913 108.166 125 108.599 127.621C106.508 130.122 104.247 132.959 103.045 134.474ZM115.404 129.112C112.927 122.332 113.48 114.349 114.731 107.472C115.187 104.876 115.837 102.327 116.702 99.8264C117.159 98.4559 117.688 97.0857 118.289 95.7633C118.626 95.0177 119.467 92.2769 120.188 91.9403L137.5 84.054L162.65 105.621L158.538 129.953L128.459 143.105C127.954 143.273 125.742 141.374 125.286 141.061C124.276 140.34 123.338 139.571 122.4 138.802C120.597 137.287 118.986 135.628 117.688 133.656C116.726 132.189 115.981 130.674 115.404 129.112ZM148.921 177.175C146.108 176.55 143.319 175.733 140.553 174.699C132.042 171.525 124.637 166.644 118.601 160.609C121.823 162.196 125.334 163.374 128.243 164.215C135.672 171.261 143.944 175.035 150.411 177.031C149.834 177.127 149.353 177.151 148.921 177.175ZM179.913 168.279C175.128 171.212 169.814 173.184 164.885 174.53C163.251 174.434 160.678 174.194 157.552 173.569C156.35 173.328 155.076 173.04 153.729 172.655C147.959 171.068 140.025 167.87 132.835 161.45C131.393 156.762 131.249 151.665 131.345 148.347L160.846 135.459L165.463 137.695L180.731 145.077L179.913 168.279ZM173.71 100.235L166.929 101.341L141.659 79.7023L146.949 67.8728C153.441 63.9777 175.225 59.6979 175.225 59.6979C187.463 66.0452 193.065 71.8881 195.229 74.6531L188.929 97.7829L173.71 100.235ZM214.8 148.852C209.463 157.7 202.105 164.865 193.546 169.938C193.45 169.842 193.257 169.77 192.993 169.722C190.853 169.385 188.064 168.471 185.948 167.702L186.79 143.947L203.428 126.635L218.696 128.463C219.393 134.209 216.243 144.548 214.8 148.852ZM219.056 122.452L204.029 120.649L194.387 100.596L200.711 77.3939C204.173 78.3316 208.693 79.5821 211.555 80.3753C216.147 86.5786 219.537 93.6234 221.533 101.077C222.134 108.771 220.306 117.619 219.056 122.452Z" fill="black"/>
</g>
<path d="M246.95 70.0966L251.779 41.5455H374.72L369.89 70.0966H325.785L306.467 187H271.808L291.126 70.0966H246.95ZM371.367 188.847C364.454 188.847 358.488 187.687 353.469 185.366C348.498 182.999 344.852 179.424 342.532 174.642C340.259 169.86 339.714 163.894 340.898 156.744C341.94 150.684 343.857 145.594 346.651 141.474C349.492 137.308 352.972 133.922 357.091 131.318C361.258 128.714 365.898 126.725 371.012 125.352C376.125 123.979 381.476 123.056 387.063 122.582C393.313 122.014 398.379 121.399 402.262 120.736C406.192 120.073 409.127 119.15 411.069 117.966C413.01 116.735 414.194 115.03 414.62 112.852V112.497C415.188 108.851 414.407 106.034 412.276 104.045C410.145 102.057 406.949 101.062 402.688 101.062C398.142 101.062 394.26 102.057 391.04 104.045C387.82 106.034 385.571 108.78 384.293 112.284L352.475 111.148C354.463 104.519 357.873 98.6004 362.702 93.392C367.532 88.1364 373.663 84.017 381.097 81.0341C388.578 78.0038 397.219 76.4886 407.02 76.4886C413.933 76.4886 420.183 77.3172 425.77 78.9744C431.357 80.5843 436.069 82.9517 439.904 86.0767C443.786 89.1544 446.556 92.9422 448.213 97.4403C449.871 101.938 450.226 107.076 449.279 112.852L436.85 187H404.179L406.736 171.801H405.884C403.327 175.494 400.32 178.619 396.864 181.176C393.455 183.733 389.62 185.651 385.358 186.929C381.097 188.207 376.433 188.847 371.367 188.847ZM385.998 166.119C389.643 166.119 393.1 165.362 396.367 163.847C399.634 162.331 402.38 160.248 404.605 157.597C406.878 154.898 408.322 151.773 408.938 148.222L410.571 137.852C409.577 138.373 408.322 138.847 406.807 139.273C405.292 139.699 403.682 140.101 401.978 140.48C400.273 140.812 398.521 141.143 396.722 141.474C394.97 141.759 393.289 142.019 391.679 142.256C388.27 142.777 385.311 143.581 382.801 144.67C380.292 145.759 378.28 147.18 376.765 148.932C375.297 150.636 374.397 152.672 374.066 155.04C373.498 158.591 374.326 161.337 376.551 163.278C378.777 165.172 381.926 166.119 385.998 166.119ZM482.094 158.378L489.125 116.972H493.884L531.242 77.9091H570.588L515.759 133.875H506.597L482.094 158.378ZM446.086 187L470.233 41.5455H504.963L480.816 187H446.086ZM513.841 187L492.819 141.688L519.878 117.043L553.969 187H513.841ZM552.836 187L571.017 77.9091H605.748L587.566 187H552.836ZM597.885 187L616.066 77.9091H649.092L645.825 97.9375H647.032C650.347 91.3087 655.034 86.0767 661.095 82.2415C667.155 78.4062 673.926 76.4886 681.407 76.4886C688.936 76.4886 695.067 78.4299 699.802 82.3125C704.584 86.1951 707.165 91.4034 707.544 97.9375H708.68C711.805 91.4508 716.635 86.2661 723.169 82.3835C729.75 78.4536 737.089 76.4886 745.186 76.4886C755.413 76.4886 763.202 79.803 768.552 86.4318C773.95 93.0133 775.678 102.057 773.737 113.562L761.521 187H726.862L737.941 121.517C738.699 116.072 737.894 111.929 735.527 109.088C733.207 106.2 729.821 104.756 725.37 104.756C720.588 104.756 716.587 106.295 713.368 109.372C710.195 112.45 708.23 116.616 707.473 121.872L696.464 187H663.012L674.163 121.162C674.873 116.096 674.092 112.095 671.819 109.159C669.594 106.223 666.208 104.756 661.663 104.756C658.68 104.756 655.91 105.49 653.353 106.957C650.797 108.378 648.642 110.414 646.89 113.065C645.186 115.717 644.073 118.842 643.552 122.44L632.615 187H597.885ZM770.828 187L789.01 77.9091H823.74L805.558 187H770.828ZM860.976 124.784L850.607 187H815.877L834.059 77.9091H867.084L863.817 97.9375H865.025C868.434 91.2614 873.382 86.0294 879.868 82.2415C886.355 78.4062 893.647 76.4886 901.743 76.4886C909.366 76.4886 915.735 78.1932 920.848 81.6023C925.962 85.0114 929.584 89.7936 931.715 95.9489C933.846 102.057 934.201 109.23 932.78 117.469L921.132 187H886.402L896.843 124.287C897.884 118.274 897.15 113.562 894.641 110.153C892.179 106.697 888.154 104.969 882.567 104.969C878.921 104.969 875.583 105.774 872.553 107.384C869.57 108.946 867.06 111.195 865.025 114.131C863.036 117.066 861.686 120.617 860.976 124.784ZM989.299 41.5455L965.152 187H930.422L954.569 41.5455H989.299ZM1005.73 188.847C998.813 188.847 992.847 187.687 987.828 185.366C982.857 182.999 979.211 179.424 976.891 174.642C974.618 169.86 974.074 163.894 975.257 156.744C976.299 150.684 978.217 145.594 981.01 141.474C983.851 137.308 987.331 133.922 991.451 131.318C995.617 128.714 1000.26 126.725 1005.37 125.352C1010.48 123.979 1015.84 123.056 1021.42 122.582C1027.67 122.014 1032.74 121.399 1036.62 120.736C1040.55 120.073 1043.49 119.15 1045.43 117.966C1047.37 116.735 1048.55 115.03 1048.98 112.852V112.497C1049.55 108.851 1048.77 106.034 1046.64 104.045C1044.5 102.057 1041.31 101.062 1037.05 101.062C1032.5 101.062 1028.62 102.057 1025.4 104.045C1022.18 106.034 1019.93 108.78 1018.65 112.284L986.834 111.148C988.823 104.519 992.232 98.6004 997.061 93.392C1001.89 88.1364 1008.02 84.017 1015.46 81.0341C1022.94 78.0038 1031.58 76.4886 1041.38 76.4886C1048.29 76.4886 1054.54 77.3172 1060.13 78.9744C1065.72 80.5843 1070.43 82.9517 1074.26 86.0767C1078.15 89.1544 1080.92 92.9422 1082.57 97.4403C1084.23 101.938 1084.59 107.076 1083.64 112.852L1071.21 187H1038.54L1041.1 171.801H1040.24C1037.69 175.494 1034.68 178.619 1031.22 181.176C1027.81 183.733 1023.98 185.651 1019.72 186.929C1015.46 188.207 1010.79 188.847 1005.73 188.847ZM1020.36 166.119C1024 166.119 1027.46 165.362 1030.73 163.847C1033.99 162.331 1036.74 160.248 1038.96 157.597C1041.24 154.898 1042.68 151.773 1043.3 148.222L1044.93 137.852C1043.94 138.373 1042.68 138.847 1041.17 139.273C1039.65 139.699 1038.04 140.101 1036.34 140.48C1034.63 140.812 1032.88 141.143 1031.08 141.474C1029.33 141.759 1027.65 142.019 1026.04 142.256C1022.63 142.777 1019.67 143.581 1017.16 144.67C1014.65 145.759 1012.64 147.18 1011.12 148.932C1009.66 150.636 1008.76 152.672 1008.43 155.04C1007.86 158.591 1008.69 161.337 1010.91 163.278C1013.14 165.172 1016.28 166.119 1020.36 166.119Z" fill="black"/>
<defs>
<clipPath id="clip0_52_61">
<rect width="229" height="229" fill="white"/>
</clipPath>
</defs>
</svg>
