<svg width="159" height="28" viewBox="0 0 159 28" fill="none" xmlns="http://www.w3.org/2000/svg">
<rect x="2" y="26" width="24" height="29" rx="2.5" transform="rotate(-90 2 26)" stroke="#2DC552"/>
<line x1="16" y1="26" x2="16" y2="17" stroke="#2DC552" stroke-width="2"/>
<line x1="16" y1="11" x2="16" y2="2" stroke="#2DC552" stroke-width="2"/>
<path d="M22.5 14L29.25 4.04071V23.9593L22.5 14Z" fill="#2DC552"/>
<path d="M9.5 14L3.5 23.9593L3.5 4.04071L9.5 14Z" fill="#2DC552"/>
<circle cx="16" cy="14" r="2.5" transform="rotate(-90 16 14)" stroke="#2DC552" stroke-width="2"/>
<rect x="1" y="27" width="26" height="31" rx="3.5" transform="rotate(-90 1 27)" stroke="black"/>
<path d="M40.1825 10.62H38.045V8.1H45.2225V10.62H43.085V18H40.1825V10.62ZM49.7814 18V17.1375C49.7314 17.2275 49.6189 17.3575 49.4439 17.5275C49.2739 17.6925 49.0489 17.8425 48.7689 17.9775C48.4939 18.1125 48.1714 18.18 47.8014 18.18C47.1864 18.18 46.6564 18.0275 46.2114 17.7225C45.7714 17.4125 45.4339 17.01 45.1989 16.515C44.9639 16.02 44.8464 15.49 44.8464 14.925C44.8464 14.36 44.9639 13.83 45.1989 13.335C45.4339 12.84 45.7714 12.4375 46.2114 12.1275C46.6564 11.8175 47.1864 11.6625 47.8014 11.6625C48.3264 11.6625 48.7489 11.765 49.0689 11.97C49.3939 12.175 49.6214 12.3725 49.7514 12.5625V11.8425H52.6914V18H49.7814ZM47.7414 14.925C47.7414 15.185 47.8339 15.4125 48.0189 15.6075C48.2039 15.8025 48.4464 15.9 48.7464 15.9C49.0464 15.9 49.2889 15.8025 49.4739 15.6075C49.6589 15.4125 49.7514 15.185 49.7514 14.925C49.7514 14.67 49.6589 14.4425 49.4739 14.2425C49.2889 14.0425 49.0464 13.9425 48.7464 13.9425C48.4464 13.9425 48.2039 14.0425 48.0189 14.2425C47.8339 14.4425 47.7414 14.67 47.7414 14.925ZM58.4352 11.8425H61.7127L58.9902 14.7825L62.0652 18H58.7127L56.6652 15.6975V18H53.7102V7.68H56.6652V13.7775L58.4352 11.8425ZM62.2652 18V11.8425H64.9877V18H62.2652ZM75.2155 11.6625C75.6855 11.6625 76.108 11.7575 76.483 11.9475C76.863 12.1325 77.163 12.425 77.383 12.825C77.608 13.22 77.7205 13.7325 77.7205 14.3625V18H74.818V14.76C74.818 14.495 74.773 14.255 74.683 14.04C74.593 13.825 74.3905 13.7175 74.0755 13.7175C73.7555 13.7175 73.528 13.8275 73.393 14.0475C73.263 14.2625 73.198 14.5 73.198 14.76V18H70.5055V14.76C70.5055 14.495 70.463 14.255 70.378 14.04C70.298 13.825 70.098 13.7175 69.778 13.7175C69.458 13.7175 69.228 13.8275 69.088 14.0475C68.953 14.2625 68.8855 14.5 68.8855 14.76V18H65.9605V11.8425H68.8855V12.675C68.9505 12.52 69.0905 12.365 69.3055 12.21C69.5255 12.055 69.788 11.925 70.093 11.82C70.403 11.715 70.7205 11.6625 71.0455 11.6625C71.5805 11.6625 71.993 11.75 72.283 11.925C72.573 12.1 72.8105 12.3525 72.9955 12.6825C73.0605 12.5275 73.2005 12.3725 73.4155 12.2175C73.6305 12.0575 73.8955 11.925 74.2105 11.82C74.5255 11.715 74.8605 11.6625 75.2155 11.6625ZM78.5103 18V11.8425H81.2328V18H78.5103ZM87.0281 11.6625C87.4831 11.6625 87.9231 11.7525 88.3481 11.9325C88.7781 12.1075 89.1306 12.39 89.4056 12.78C89.6856 13.165 89.8256 13.6725 89.8256 14.3025V18H86.8706V14.76C86.8706 14.44 86.7906 14.1875 86.6306 14.0025C86.4756 13.8125 86.2656 13.7175 86.0006 13.7175C85.7356 13.7175 85.5081 13.8125 85.3181 14.0025C85.1331 14.1875 85.0406 14.44 85.0406 14.76V18H82.0856V11.8425H85.0406V12.615C85.1356 12.38 85.3681 12.1625 85.7381 11.9625C86.1131 11.7625 86.5431 11.6625 87.0281 11.6625ZM93.8032 18H90.8482V7.68H93.8032V18ZM99.6447 18V17.1375C99.5947 17.2275 99.4822 17.3575 99.3072 17.5275C99.1372 17.6925 98.9122 17.8425 98.6322 17.9775C98.3572 18.1125 98.0347 18.18 97.6647 18.18C97.0497 18.18 96.5197 18.0275 96.0747 17.7225C95.6347 17.4125 95.2972 17.01 95.0622 16.515C94.8272 16.02 94.7097 15.49 94.7097 14.925C94.7097 14.36 94.8272 13.83 95.0622 13.335C95.2972 12.84 95.6347 12.4375 96.0747 12.1275C96.5197 11.8175 97.0497 11.6625 97.6647 11.6625C98.1897 11.6625 98.6122 11.765 98.9322 11.97C99.2572 12.175 99.4847 12.3725 99.6147 12.5625V11.8425H102.555V18H99.6447ZM97.6047 14.925C97.6047 15.185 97.6972 15.4125 97.8822 15.6075C98.0672 15.8025 98.3097 15.9 98.6097 15.9C98.9097 15.9 99.1522 15.8025 99.3372 15.6075C99.5222 15.4125 99.6147 15.185 99.6147 14.925C99.6147 14.67 99.5222 14.4425 99.3372 14.2425C99.1522 14.0425 98.9097 13.9425 98.6097 13.9425C98.3097 13.9425 98.0672 14.0425 97.8822 14.2425C97.6972 14.4425 97.6047 14.67 97.6047 14.925ZM105.418 18.18C104.978 18.18 104.601 18.0225 104.286 17.7075C103.971 17.3925 103.813 17.015 103.813 16.575C103.813 16.13 103.971 15.75 104.286 15.435C104.601 15.12 104.978 14.9625 105.418 14.9625C105.863 14.9625 106.243 15.12 106.558 15.435C106.873 15.75 107.031 16.13 107.031 16.575C107.031 17.015 106.873 17.3925 106.558 17.7075C106.243 18.0225 105.863 18.18 105.418 18.18ZM111.918 15.9C112.128 15.9 112.306 15.86 112.451 15.78C112.601 15.7 112.708 15.6275 112.773 15.5625L114.101 17.535C113.951 17.66 113.688 17.8 113.313 17.955C112.943 18.105 112.476 18.18 111.911 18.18C111.101 18.18 110.411 18.04 109.841 17.76C109.276 17.48 108.843 17.095 108.543 16.605C108.248 16.115 108.101 15.5525 108.101 14.9175C108.101 14.2775 108.248 13.715 108.543 13.23C108.843 12.74 109.276 12.3575 109.841 12.0825C110.411 11.8025 111.101 11.6625 111.911 11.6625C112.456 11.6625 112.926 11.735 113.321 11.88C113.716 12.025 113.986 12.1575 114.131 12.2775L112.773 14.2575C112.723 14.2175 112.626 14.155 112.481 14.07C112.336 13.985 112.148 13.9425 111.918 13.9425C111.628 13.9425 111.388 14.0425 111.198 14.2425C111.013 14.4425 110.921 14.6675 110.921 14.9175C110.921 15.1675 111.013 15.395 111.198 15.6C111.388 15.8 111.628 15.9 111.918 15.9ZM118.115 18.18C117.415 18.18 116.792 18.045 116.247 17.775C115.702 17.5 115.275 17.12 114.965 16.635C114.655 16.145 114.5 15.58 114.5 14.94C114.5 14.3 114.655 13.735 114.965 13.245C115.275 12.75 115.702 12.3625 116.247 12.0825C116.792 11.8025 117.415 11.6625 118.115 11.6625C118.815 11.6625 119.432 11.8025 119.967 12.0825C120.502 12.3625 120.92 12.75 121.22 13.245C121.525 13.735 121.677 14.3 121.677 14.94C121.677 15.58 121.525 16.145 121.22 16.635C120.92 17.12 120.502 17.5 119.967 17.775C119.432 18.045 118.815 18.18 118.115 18.18ZM118.115 15.78C118.36 15.78 118.55 15.705 118.685 15.555C118.825 15.4 118.895 15.19 118.895 14.925C118.895 14.66 118.825 14.45 118.685 14.295C118.55 14.14 118.36 14.0625 118.115 14.0625C117.87 14.0625 117.675 14.14 117.53 14.295C117.39 14.45 117.32 14.66 117.32 14.925C117.32 15.19 117.39 15.4 117.53 15.555C117.675 15.705 117.87 15.78 118.115 15.78ZM131.89 11.6625C132.36 11.6625 132.783 11.7575 133.158 11.9475C133.538 12.1325 133.838 12.425 134.058 12.825C134.283 13.22 134.395 13.7325 134.395 14.3625V18H131.493V14.76C131.493 14.495 131.448 14.255 131.358 14.04C131.268 13.825 131.065 13.7175 130.75 13.7175C130.43 13.7175 130.203 13.8275 130.068 14.0475C129.938 14.2625 129.873 14.5 129.873 14.76V18H127.18V14.76C127.18 14.495 127.138 14.255 127.053 14.04C126.973 13.825 126.773 13.7175 126.453 13.7175C126.133 13.7175 125.903 13.8275 125.763 14.0475C125.628 14.2625 125.56 14.5 125.56 14.76V18H122.635V11.8425H125.56V12.675C125.625 12.52 125.765 12.365 125.98 12.21C126.2 12.055 126.463 11.925 126.768 11.82C127.078 11.715 127.395 11.6625 127.72 11.6625C128.255 11.6625 128.668 11.75 128.958 11.925C129.248 12.1 129.485 12.3525 129.67 12.6825C129.735 12.5275 129.875 12.3725 130.09 12.2175C130.305 12.0575 130.57 11.925 130.885 11.82C131.2 11.715 131.535 11.6625 131.89 11.6625Z" fill="#2DC552"/>
</svg>
