<svg width="229" height="229" viewBox="0 0 229 229" fill="none" xmlns="http://www.w3.org/2000/svg">
<g clip-path="url(#clip0_51_13)">
<path d="M89.0038 117.042C89.0038 76.6727 121.727 43.9492 162.097 43.9492C164.862 43.9492 167.579 44.1175 170.272 44.4058C169.719 43.8047 167.482 42.5304 166.713 42.1697C126.175 22.7905 88.5951 50.032 68.9033 67.4637C65.4891 70.4932 66.0661 75.879 69.961 78.2593C78.809 83.6692 70.1293 108.169 54.6692 100.812C53.7074 100.356 52.2167 99.4176 51.2309 98.961C29.1828 88.502 -1.61716 114.036 0.065895 116.777C2.37409 120.528 20.9358 98.8408 68.6866 154.598C101.122 192.419 133.725 195.208 153.561 192.924C155.533 192.707 160.534 191.457 161.568 190.111C121.439 189.822 89.0038 157.219 89.0038 117.042Z" fill="url(#paint0_linear_51_13)"/>
<path d="M222.927 89.2715C219.321 81.3851 214.32 74.3644 208.02 68.4256C201.504 62.2704 193.931 57.5578 185.467 54.4081C181.259 52.8452 176.932 51.6911 172.556 50.9939C171.353 50.8015 170.127 50.6332 168.925 50.513C167.699 50.3928 166.473 50.2966 165.246 50.2245C164.02 50.1764 162.794 50.1523 161.592 50.1523C160.39 50.1523 159.187 50.2004 158.009 50.2726C156.807 50.3447 155.629 50.4649 154.427 50.5851C153.249 50.7296 152.047 50.8977 150.868 51.0903C149.69 51.2826 148.512 51.5231 147.334 51.7873C146.156 52.052 145.002 52.3403 143.847 52.6769C143.319 52.8212 142.814 52.9895 142.285 53.1338C135.913 55.1051 129.902 58.0146 124.372 61.7895C112.927 69.6037 104.296 80.5914 99.439 93.6231C96.289 102.087 94.8707 110.887 95.2554 119.855C95.616 128.487 97.6357 136.878 101.242 144.764C104.849 152.651 109.85 159.671 116.149 165.61C122.665 171.765 130.239 176.478 138.702 179.628C146.228 182.441 154.114 183.859 162.073 183.859C162.265 183.859 162.433 183.859 162.626 183.859C169.166 183.811 175.633 182.802 181.909 180.854C188.28 178.882 194.291 175.973 199.821 172.198C211.266 164.384 219.898 153.396 224.755 140.365C227.905 131.901 229.323 123.077 228.938 114.133C228.529 105.549 226.51 97.1818 222.927 89.2715ZM162.097 55.442C162.145 55.442 162.193 55.442 162.217 55.442C156.086 56.7163 150.075 59.0245 144.425 62.3425C144.088 62.5349 143.751 62.7512 143.415 62.9436C139.904 62.607 134.831 62.8715 128.724 65.2758C138.582 58.9283 150.171 55.442 162.097 55.442ZM103.045 134.474C99.3907 122.115 99.559 108.506 104.416 95.4985C106.387 90.2332 109.008 85.3761 112.134 81.0245C112.182 83.0922 112.711 85.713 114.273 90.2089C110.282 97.9029 108.07 106.679 107.83 115.936C107.71 120.913 108.166 125 108.599 127.621C106.508 130.122 104.247 132.959 103.045 134.474ZM115.404 129.112C112.927 122.332 113.48 114.349 114.731 107.472C115.187 104.876 115.837 102.327 116.702 99.8264C117.159 98.4559 117.688 97.0857 118.289 95.7633C118.626 95.0177 119.467 92.2769 120.188 91.9403L137.5 84.054L162.65 105.621L158.538 129.953L128.459 143.105C127.954 143.273 125.742 141.374 125.286 141.061C124.276 140.34 123.338 139.571 122.4 138.802C120.597 137.287 118.986 135.628 117.688 133.656C116.726 132.189 115.981 130.674 115.404 129.112ZM148.921 177.175C146.108 176.55 143.319 175.733 140.553 174.699C132.042 171.525 124.637 166.644 118.601 160.609C121.823 162.196 125.334 163.374 128.243 164.215C135.672 171.261 143.944 175.035 150.411 177.031C149.834 177.127 149.353 177.151 148.921 177.175ZM179.913 168.279C175.128 171.212 169.814 173.184 164.885 174.53C163.251 174.434 160.678 174.194 157.552 173.569C156.35 173.328 155.076 173.04 153.729 172.655C147.959 171.068 140.025 167.87 132.835 161.45C131.393 156.762 131.249 151.665 131.345 148.347L160.846 135.459L165.463 137.695L180.731 145.077L179.913 168.279ZM173.71 100.235L166.929 101.341L141.659 79.7023L146.949 67.8728C153.441 63.9777 175.225 59.6979 175.225 59.6979C187.463 66.0452 193.065 71.8881 195.229 74.6531L188.929 97.7829L173.71 100.235ZM214.8 148.852C209.463 157.7 202.105 164.865 193.546 169.938C193.45 169.842 193.257 169.77 192.993 169.722C190.853 169.385 188.064 168.471 185.948 167.702L186.79 143.947L203.428 126.635L218.696 128.463C219.393 134.209 216.243 144.548 214.8 148.852ZM219.056 122.452L204.029 120.649L194.387 100.596L200.711 77.3939C204.173 78.3316 208.693 79.5821 211.555 80.3753C216.147 86.5786 219.537 93.6234 221.533 101.077C222.134 108.771 220.306 117.619 219.056 122.452Z" fill="url(#paint1_linear_51_13)"/>
</g>
<defs>
<linearGradient id="paint0_linear_51_13" x1="85.1357" y1="35.4912" x2="85.1357" y2="193.509" gradientUnits="userSpaceOnUse">
<stop stop-color="#2DC552"/>
<stop offset="1" stop-color="#0A3615"/>
</linearGradient>
<linearGradient id="paint1_linear_51_13" x1="162.097" y1="50.1523" x2="162.097" y2="183.859" gradientUnits="userSpaceOnUse">
<stop stop-color="#2DC552"/>
<stop offset="1" stop-color="#0A3615"/>
</linearGradient>
<clipPath id="clip0_51_13">
<rect width="229" height="229" fill="white"/>
</clipPath>
</defs>
</svg>
