<svg width="646" height="106" viewBox="0 0 646 106" fill="none" xmlns="http://www.w3.org/2000/svg">
<path d="M14.55 27.8H0.3V11H48.15V27.8H33.9V77H14.55V27.8ZM78.543 77V71.25C78.2096 71.85 77.4596 72.7167 76.293 73.85C75.1596 74.95 73.6596 75.95 71.793 76.85C69.9596 77.75 67.8096 78.2 65.343 78.2C61.243 78.2 57.7096 77.1833 54.743 75.15C51.8096 73.0833 49.5596 70.4 47.993 67.1C46.4263 63.8 45.643 60.2667 45.643 56.5C45.643 52.7333 46.4263 49.2 47.993 45.9C49.5596 42.6 51.8096 39.9167 54.743 37.85C57.7096 35.7833 61.243 34.75 65.343 34.75C68.843 34.75 71.6596 35.4333 73.793 36.8C75.9596 38.1667 77.4763 39.4833 78.343 40.75V35.95H97.943V77H78.543ZM64.943 56.5C64.943 58.2333 65.5596 59.75 66.793 61.05C68.0263 62.35 69.643 63 71.643 63C73.643 63 75.2596 62.35 76.493 61.05C77.7263 59.75 78.343 58.2333 78.343 56.5C78.343 54.8 77.7263 53.2833 76.493 51.95C75.2596 50.6167 73.643 49.95 71.643 49.95C69.643 49.95 68.0263 50.6167 66.793 51.95C65.5596 53.2833 64.943 54.8 64.943 56.5ZM136.234 35.95H158.084L139.934 55.55L160.434 77H138.084L124.434 61.65V77H104.734V8.2H124.434V48.85L136.234 35.95ZM161.768 77V35.95H179.918V77H161.768ZM248.103 34.75C251.236 34.75 254.053 35.3833 256.553 36.65C259.086 37.8833 261.086 39.8333 262.553 42.5C264.053 45.1333 264.803 48.55 264.803 52.75V77H245.453V55.4C245.453 53.6333 245.153 52.0333 244.553 50.6C243.953 49.1667 242.603 48.45 240.503 48.45C238.37 48.45 236.853 49.1833 235.953 50.65C235.086 52.0833 234.653 53.6667 234.653 55.4V77H216.703V55.4C216.703 53.6333 216.42 52.0333 215.853 50.6C215.32 49.1667 213.986 48.45 211.853 48.45C209.72 48.45 208.186 49.1833 207.253 50.65C206.353 52.0833 205.903 53.6667 205.903 55.4V77H186.403V35.95H205.903V41.5C206.336 40.4667 207.27 39.4333 208.703 38.4C210.17 37.3667 211.92 36.5 213.953 35.8C216.02 35.1 218.136 34.75 220.303 34.75C223.87 34.75 226.62 35.3333 228.553 36.5C230.486 37.6667 232.07 39.35 233.303 41.55C233.736 40.5167 234.67 39.4833 236.103 38.45C237.536 37.3833 239.303 36.5 241.403 35.8C243.503 35.1 245.736 34.75 248.103 34.75ZM270.069 77V35.95H288.219V77H270.069ZM326.854 34.75C329.887 34.75 332.821 35.35 335.654 36.55C338.521 37.7167 340.871 39.6 342.704 42.2C344.571 44.7667 345.504 48.15 345.504 52.35V77H325.804V55.4C325.804 53.2667 325.271 51.5833 324.204 50.35C323.171 49.0833 321.771 48.45 320.004 48.45C318.237 48.45 316.721 49.0833 315.454 50.35C314.221 51.5833 313.604 53.2667 313.604 55.4V77H293.904V35.95H313.604V41.1C314.237 39.5333 315.787 38.0833 318.254 36.75C320.754 35.4167 323.621 34.75 326.854 34.75ZM372.021 77H352.321V8.2H372.021V77ZM410.965 77V71.25C410.632 71.85 409.882 72.7167 408.715 73.85C407.582 74.95 406.082 75.95 404.215 76.85C402.382 77.75 400.232 78.2 397.765 78.2C393.665 78.2 390.132 77.1833 387.165 75.15C384.232 73.0833 381.982 70.4 380.415 67.1C378.848 63.8 378.065 60.2667 378.065 56.5C378.065 52.7333 378.848 49.2 380.415 45.9C381.982 42.6 384.232 39.9167 387.165 37.85C390.132 35.7833 393.665 34.75 397.765 34.75C401.265 34.75 404.082 35.4333 406.215 36.8C408.382 38.1667 409.898 39.4833 410.765 40.75V35.95H430.365V77H410.965ZM397.365 56.5C397.365 58.2333 397.982 59.75 399.215 61.05C400.448 62.35 402.065 63 404.065 63C406.065 63 407.682 62.35 408.915 61.05C410.148 59.75 410.765 58.2333 410.765 56.5C410.765 54.8 410.148 53.2833 408.915 51.95C407.682 50.6167 406.065 49.95 404.065 49.95C402.065 49.95 400.448 50.6167 399.215 51.95C397.982 53.2833 397.365 54.8 397.365 56.5ZM449.456 78.2C446.523 78.2 444.006 77.15 441.906 75.05C439.806 72.95 438.756 70.4333 438.756 67.5C438.756 64.5333 439.806 62 441.906 59.9C444.006 57.8 446.523 56.75 449.456 56.75C452.423 56.75 454.956 57.8 457.056 59.9C459.156 62 460.206 64.5333 460.206 67.5C460.206 70.4333 459.156 72.95 457.056 75.05C454.956 77.15 452.423 78.2 449.456 78.2ZM492.789 63C494.189 63 495.372 62.7333 496.339 62.2C497.339 61.6667 498.056 61.1833 498.489 60.75L507.339 73.9C506.339 74.7333 504.589 75.6667 502.089 76.7C499.622 77.7 496.506 78.2 492.739 78.2C487.339 78.2 482.739 77.2667 478.939 75.4C475.172 73.5333 472.289 70.9667 470.289 67.7C468.322 64.4333 467.339 60.6833 467.339 56.45C467.339 52.1833 468.322 48.4333 470.289 45.2C472.289 41.9333 475.172 39.3833 478.939 37.55C482.739 35.6833 487.339 34.75 492.739 34.75C496.372 34.75 499.506 35.2333 502.139 36.2C504.772 37.1667 506.572 38.05 507.539 38.85L498.489 52.05C498.156 51.7833 497.506 51.3667 496.539 50.8C495.572 50.2333 494.322 49.95 492.789 49.95C490.856 49.95 489.256 50.6167 487.989 51.95C486.756 53.2833 486.139 54.7833 486.139 56.45C486.139 58.1167 486.756 59.6333 487.989 61C489.256 62.3333 490.856 63 492.789 63ZM534.098 78.2C529.432 78.2 525.282 77.3 521.648 75.5C518.015 73.6667 515.165 71.1333 513.098 67.9C511.032 64.6333 509.998 60.8667 509.998 56.6C509.998 52.3333 511.032 48.5667 513.098 45.3C515.165 42 518.015 39.4167 521.648 37.55C525.282 35.6833 529.432 34.75 534.098 34.75C538.765 34.75 542.882 35.6833 546.448 37.55C550.015 39.4167 552.798 42 554.798 45.3C556.832 48.5667 557.848 52.3333 557.848 56.6C557.848 60.8667 556.832 64.6333 554.798 67.9C552.798 71.1333 550.015 73.6667 546.448 75.5C542.882 77.3 538.765 78.2 534.098 78.2ZM534.098 62.2C535.732 62.2 536.998 61.7 537.898 60.7C538.832 59.6667 539.298 58.2667 539.298 56.5C539.298 54.7333 538.832 53.3333 537.898 52.3C536.998 51.2667 535.732 50.75 534.098 50.75C532.465 50.75 531.165 51.2667 530.198 52.3C529.265 53.3333 528.798 54.7333 528.798 56.5C528.798 58.2667 529.265 59.6667 530.198 60.7C531.165 61.7 532.465 62.2 534.098 62.2ZM625.935 34.75C629.068 34.75 631.885 35.3833 634.385 36.65C636.918 37.8833 638.918 39.8333 640.385 42.5C641.885 45.1333 642.635 48.55 642.635 52.75V77H623.285V55.4C623.285 53.6333 622.985 52.0333 622.385 50.6C621.785 49.1667 620.435 48.45 618.335 48.45C616.202 48.45 614.685 49.1833 613.785 50.65C612.918 52.0833 612.485 53.6667 612.485 55.4V77H594.535V55.4C594.535 53.6333 594.252 52.0333 593.685 50.6C593.152 49.1667 591.818 48.45 589.685 48.45C587.552 48.45 586.018 49.1833 585.085 50.65C584.185 52.0833 583.735 53.6667 583.735 55.4V77H564.235V35.95H583.735V41.5C584.168 40.4667 585.102 39.4333 586.535 38.4C588.002 37.3667 589.752 36.5 591.785 35.8C593.852 35.1 595.968 34.75 598.135 34.75C601.702 34.75 604.452 35.3333 606.385 36.5C608.318 37.6667 609.902 39.35 611.135 41.55C611.568 40.5167 612.502 39.4833 613.935 38.45C615.368 37.3833 617.135 36.5 619.235 35.8C621.335 35.1 623.568 34.75 625.935 34.75Z" fill="#2DC552"/>
</svg>
