<svg width="643" height="71" viewBox="0 0 643 71" fill="none" xmlns="http://www.w3.org/2000/svg">
<path d="M14.55 19.8H0.3V3H48.15V19.8H33.9V69H14.55V19.8ZM78.543 69V63.25C78.2096 63.85 77.4596 64.7167 76.293 65.85C75.1596 66.95 73.6596 67.95 71.793 68.85C69.9596 69.75 67.8096 70.2 65.343 70.2C61.243 70.2 57.7096 69.1833 54.743 67.15C51.8096 65.0833 49.5596 62.4 47.993 59.1C46.4263 55.8 45.643 52.2667 45.643 48.5C45.643 44.7333 46.4263 41.2 47.993 37.9C49.5596 34.6 51.8096 31.9167 54.743 29.85C57.7096 27.7833 61.243 26.75 65.343 26.75C68.843 26.75 71.6596 27.4333 73.793 28.8C75.9596 30.1667 77.4763 31.4833 78.343 32.75V27.95H97.943V69H78.543ZM64.943 48.5C64.943 50.2333 65.5596 51.75 66.793 53.05C68.0263 54.35 69.643 55 71.643 55C73.643 55 75.2596 54.35 76.493 53.05C77.7263 51.75 78.343 50.2333 78.343 48.5C78.343 46.8 77.7263 45.2833 76.493 43.95C75.2596 42.6167 73.643 41.95 71.643 41.95C69.643 41.95 68.0263 42.6167 66.793 43.95C65.5596 45.2833 64.943 46.8 64.943 48.5ZM136.234 27.95H158.084L139.934 47.55L160.434 69H138.084L124.434 53.65V69H104.734V0.199998H124.434V40.85L136.234 27.95ZM161.768 69V27.95H179.918V69H161.768ZM248.103 26.75C251.236 26.75 254.053 27.3833 256.553 28.65C259.086 29.8833 261.086 31.8333 262.553 34.5C264.053 37.1333 264.803 40.55 264.803 44.75V69H245.453V47.4C245.453 45.6333 245.153 44.0333 244.553 42.6C243.953 41.1667 242.603 40.45 240.503 40.45C238.37 40.45 236.853 41.1833 235.953 42.65C235.086 44.0833 234.653 45.6667 234.653 47.4V69H216.703V47.4C216.703 45.6333 216.42 44.0333 215.853 42.6C215.32 41.1667 213.986 40.45 211.853 40.45C209.72 40.45 208.186 41.1833 207.253 42.65C206.353 44.0833 205.903 45.6667 205.903 47.4V69H186.403V27.95H205.903V33.5C206.336 32.4667 207.27 31.4333 208.703 30.4C210.17 29.3667 211.92 28.5 213.953 27.8C216.02 27.1 218.136 26.75 220.303 26.75C223.87 26.75 226.62 27.3333 228.553 28.5C230.486 29.6667 232.07 31.35 233.303 33.55C233.736 32.5167 234.67 31.4833 236.103 30.45C237.536 29.3833 239.303 28.5 241.403 27.8C243.503 27.1 245.736 26.75 248.103 26.75ZM270.069 69V27.95H288.219V69H270.069ZM326.854 26.75C329.887 26.75 332.821 27.35 335.654 28.55C338.521 29.7167 340.871 31.6 342.704 34.2C344.571 36.7667 345.504 40.15 345.504 44.35V69H325.804V47.4C325.804 45.2667 325.271 43.5833 324.204 42.35C323.171 41.0833 321.771 40.45 320.004 40.45C318.237 40.45 316.721 41.0833 315.454 42.35C314.221 43.5833 313.604 45.2667 313.604 47.4V69H293.904V27.95H313.604V33.1C314.237 31.5333 315.787 30.0833 318.254 28.75C320.754 27.4167 323.621 26.75 326.854 26.75ZM372.021 69H352.321V0.199998H372.021V69ZM410.965 69V63.25C410.632 63.85 409.882 64.7167 408.715 65.85C407.582 66.95 406.082 67.95 404.215 68.85C402.382 69.75 400.232 70.2 397.765 70.2C393.665 70.2 390.132 69.1833 387.165 67.15C384.232 65.0833 381.982 62.4 380.415 59.1C378.848 55.8 378.065 52.2667 378.065 48.5C378.065 44.7333 378.848 41.2 380.415 37.9C381.982 34.6 384.232 31.9167 387.165 29.85C390.132 27.7833 393.665 26.75 397.765 26.75C401.265 26.75 404.082 27.4333 406.215 28.8C408.382 30.1667 409.898 31.4833 410.765 32.75V27.95H430.365V69H410.965ZM397.365 48.5C397.365 50.2333 397.982 51.75 399.215 53.05C400.448 54.35 402.065 55 404.065 55C406.065 55 407.682 54.35 408.915 53.05C410.148 51.75 410.765 50.2333 410.765 48.5C410.765 46.8 410.148 45.2833 408.915 43.95C407.682 42.6167 406.065 41.95 404.065 41.95C402.065 41.95 400.448 42.6167 399.215 43.95C397.982 45.2833 397.365 46.8 397.365 48.5ZM449.456 70.2C446.523 70.2 444.006 69.15 441.906 67.05C439.806 64.95 438.756 62.4333 438.756 59.5C438.756 56.5333 439.806 54 441.906 51.9C444.006 49.8 446.523 48.75 449.456 48.75C452.423 48.75 454.956 49.8 457.056 51.9C459.156 54 460.206 56.5333 460.206 59.5C460.206 62.4333 459.156 64.95 457.056 67.05C454.956 69.15 452.423 70.2 449.456 70.2ZM492.789 55C494.189 55 495.372 54.7333 496.339 54.2C497.339 53.6667 498.056 53.1833 498.489 52.75L507.339 65.9C506.339 66.7333 504.589 67.6667 502.089 68.7C499.622 69.7 496.506 70.2 492.739 70.2C487.339 70.2 482.739 69.2667 478.939 67.4C475.172 65.5333 472.289 62.9667 470.289 59.7C468.322 56.4333 467.339 52.6833 467.339 48.45C467.339 44.1833 468.322 40.4333 470.289 37.2C472.289 33.9333 475.172 31.3833 478.939 29.55C482.739 27.6833 487.339 26.75 492.739 26.75C496.372 26.75 499.506 27.2333 502.139 28.2C504.772 29.1667 506.572 30.05 507.539 30.85L498.489 44.05C498.156 43.7833 497.506 43.3667 496.539 42.8C495.572 42.2333 494.322 41.95 492.789 41.95C490.856 41.95 489.256 42.6167 487.989 43.95C486.756 45.2833 486.139 46.7833 486.139 48.45C486.139 50.1167 486.756 51.6333 487.989 53C489.256 54.3333 490.856 55 492.789 55ZM534.098 70.2C529.432 70.2 525.282 69.3 521.648 67.5C518.015 65.6667 515.165 63.1333 513.098 59.9C511.032 56.6333 509.998 52.8667 509.998 48.6C509.998 44.3333 511.032 40.5667 513.098 37.3C515.165 34 518.015 31.4167 521.648 29.55C525.282 27.6833 529.432 26.75 534.098 26.75C538.765 26.75 542.882 27.6833 546.448 29.55C550.015 31.4167 552.798 34 554.798 37.3C556.832 40.5667 557.848 44.3333 557.848 48.6C557.848 52.8667 556.832 56.6333 554.798 59.9C552.798 63.1333 550.015 65.6667 546.448 67.5C542.882 69.3 538.765 70.2 534.098 70.2ZM534.098 54.2C535.732 54.2 536.998 53.7 537.898 52.7C538.832 51.6667 539.298 50.2667 539.298 48.5C539.298 46.7333 538.832 45.3333 537.898 44.3C536.998 43.2667 535.732 42.75 534.098 42.75C532.465 42.75 531.165 43.2667 530.198 44.3C529.265 45.3333 528.798 46.7333 528.798 48.5C528.798 50.2667 529.265 51.6667 530.198 52.7C531.165 53.7 532.465 54.2 534.098 54.2ZM625.935 26.75C629.068 26.75 631.885 27.3833 634.385 28.65C636.918 29.8833 638.918 31.8333 640.385 34.5C641.885 37.1333 642.635 40.55 642.635 44.75V69H623.285V47.4C623.285 45.6333 622.985 44.0333 622.385 42.6C621.785 41.1667 620.435 40.45 618.335 40.45C616.202 40.45 614.685 41.1833 613.785 42.65C612.918 44.0833 612.485 45.6667 612.485 47.4V69H594.535V47.4C594.535 45.6333 594.252 44.0333 593.685 42.6C593.152 41.1667 591.818 40.45 589.685 40.45C587.552 40.45 586.018 41.1833 585.085 42.65C584.185 44.0833 583.735 45.6667 583.735 47.4V69H564.235V27.95H583.735V33.5C584.168 32.4667 585.102 31.4333 586.535 30.4C588.002 29.3667 589.752 28.5 591.785 27.8C593.852 27.1 595.968 26.75 598.135 26.75C601.702 26.75 604.452 27.3333 606.385 28.5C608.318 29.6667 609.902 31.35 611.135 33.55C611.568 32.5167 612.502 31.4833 613.935 30.45C615.368 29.3833 617.135 28.5 619.235 27.8C621.335 27.1 623.568 26.75 625.935 26.75Z" fill="white"/>
</svg>
