<svg width="840" height="148" viewBox="0 0 840 148" fill="none" xmlns="http://www.w3.org/2000/svg">
<path d="M0.94993 29.0966L5.77947 0.54545H128.72L123.89 29.0966H79.7852L60.467 146H25.8079L45.1261 29.0966H0.94993ZM125.367 147.847C118.454 147.847 112.488 146.687 107.469 144.366C102.498 141.999 98.8517 138.424 96.5316 133.642C94.2589 128.86 93.7144 122.894 94.8981 115.744C95.9397 109.684 97.8574 104.594 100.651 100.474C103.492 96.3078 106.972 92.9223 111.091 90.3182C115.258 87.714 119.898 85.7254 125.012 84.3523C130.125 82.9792 135.476 82.0559 141.063 81.5824C147.313 81.0142 152.379 80.3987 156.262 79.7358C160.192 79.0729 163.127 78.1496 165.069 76.9659C167.01 75.7348 168.194 74.0303 168.62 71.8523V71.4972C169.188 67.8513 168.407 65.0341 166.276 63.0455C164.145 61.0568 160.949 60.0625 156.688 60.0625C152.142 60.0625 148.26 61.0568 145.04 63.0455C141.82 65.0341 139.571 67.7803 138.293 71.2841L106.475 70.1477C108.463 63.5189 111.873 57.6004 116.702 52.392C121.532 47.1364 127.663 43.017 135.097 40.0341C142.578 37.0038 151.219 35.4886 161.02 35.4886C167.933 35.4886 174.183 36.3172 179.77 37.9744C185.357 39.5843 190.069 41.9517 193.904 45.0767C197.786 48.1544 200.556 51.9422 202.213 56.4403C203.871 60.9384 204.226 66.0758 203.279 71.8523L190.85 146H158.179L160.736 130.801H159.884C157.327 134.494 154.32 137.619 150.864 140.176C147.455 142.733 143.62 144.651 139.358 145.929C135.097 147.207 130.433 147.847 125.367 147.847ZM139.998 125.119C143.643 125.119 147.1 124.362 150.367 122.847C153.634 121.331 156.38 119.248 158.605 116.597C160.878 113.898 162.322 110.773 162.938 107.222L164.571 96.8523C163.577 97.3731 162.322 97.8466 160.807 98.2727C159.292 98.6989 157.682 99.1013 155.978 99.4801C154.273 99.8116 152.521 100.143 150.722 100.474C148.97 100.759 147.289 101.019 145.679 101.256C142.27 101.777 139.311 102.581 136.801 103.67C134.292 104.759 132.28 106.18 130.765 107.932C129.297 109.636 128.397 111.672 128.066 114.04C127.498 117.591 128.326 120.337 130.551 122.278C132.777 124.172 135.926 125.119 139.998 125.119ZM236.094 117.378L243.125 75.9716H247.884L285.242 36.9091H324.588L269.759 92.875H260.597L236.094 117.378ZM200.086 146L224.233 0.54545H258.963L234.816 146H200.086ZM267.841 146L246.819 100.688L273.878 76.0426L307.969 146H267.841ZM306.836 146L325.017 36.9091H359.748L341.566 146H306.836ZM351.885 146L370.066 36.9091H403.092L399.825 56.9375H401.032C404.347 50.3087 409.034 45.0767 415.095 41.2415C421.155 37.4062 427.926 35.4886 435.407 35.4886C442.936 35.4886 449.067 37.4299 453.802 41.3125C458.584 45.1951 461.165 50.4034 461.544 56.9375H462.68C465.805 50.4508 470.635 45.2661 477.169 41.3835C483.75 37.4536 491.089 35.4886 499.186 35.4886C509.413 35.4886 517.202 38.803 522.552 45.4318C527.95 52.0133 529.678 61.0568 527.737 72.5625L515.521 146H480.862L491.941 80.517C492.699 75.072 491.894 70.929 489.527 68.0881C487.207 65.1998 483.821 63.7557 479.37 63.7557C474.588 63.7557 470.587 65.2945 467.368 68.3722C464.195 71.4498 462.23 75.6165 461.473 80.8722L450.464 146H417.012L428.163 80.1619C428.873 75.0956 428.092 71.0947 425.819 68.1591C423.594 65.2235 420.208 63.7557 415.663 63.7557C412.68 63.7557 409.91 64.4896 407.353 65.9574C404.797 67.3778 402.642 69.4138 400.89 72.0653C399.186 74.7169 398.073 77.8419 397.552 81.4403L386.615 146H351.885ZM524.828 146L543.01 36.9091H577.74L559.558 146H524.828ZM614.976 83.7841L604.607 146H569.877L588.059 36.9091H621.084L617.817 56.9375H619.025C622.434 50.2614 627.382 45.0294 633.868 41.2415C640.355 37.4062 647.647 35.4886 655.743 35.4886C663.366 35.4886 669.735 37.1932 674.848 40.6023C679.962 44.0114 683.584 48.7936 685.715 54.9489C687.846 61.0568 688.201 68.2301 686.78 76.4688L675.132 146H640.402L650.843 83.2869C651.884 77.2737 651.15 72.5625 648.641 69.1534C646.179 65.697 642.154 63.9688 636.567 63.9688C632.921 63.9688 629.583 64.7737 626.553 66.3835C623.57 67.946 621.06 70.1951 619.025 73.1307C617.036 76.0663 615.686 79.6174 614.976 83.7841ZM743.299 0.54545L719.152 146H684.422L708.569 0.54545H743.299ZM759.726 147.847C752.813 147.847 746.847 146.687 741.828 144.366C736.857 141.999 733.211 138.424 730.891 133.642C728.618 128.86 728.074 122.894 729.257 115.744C730.299 109.684 732.217 104.594 735.01 100.474C737.851 96.3078 741.331 92.9223 745.451 90.3182C749.617 87.714 754.257 85.7254 759.371 84.3523C764.485 82.9792 769.835 82.0559 775.422 81.5824C781.672 81.0142 786.739 80.3987 790.621 79.7358C794.551 79.0729 797.487 78.1496 799.428 76.9659C801.369 75.7348 802.553 74.0303 802.979 71.8523V71.4972C803.547 67.8513 802.766 65.0341 800.635 63.0455C798.505 61.0568 795.309 60.0625 791.047 60.0625C786.502 60.0625 782.619 61.0568 779.4 63.0455C776.18 65.0341 773.931 67.7803 772.652 71.2841L740.834 70.1477C742.823 63.5189 746.232 57.6004 751.061 52.392C755.891 47.1364 762.023 43.017 769.456 40.0341C776.937 37.0038 785.578 35.4886 795.38 35.4886C802.292 35.4886 808.542 36.3172 814.13 37.9744C819.717 39.5843 824.428 41.9517 828.263 45.0767C832.146 48.1544 834.916 51.9422 836.573 56.4403C838.23 60.9384 838.585 66.0758 837.638 71.8523L825.209 146H792.539L795.096 130.801H794.243C791.686 134.494 788.68 137.619 785.223 140.176C781.814 142.733 777.979 144.651 773.718 145.929C769.456 147.207 764.792 147.847 759.726 147.847ZM774.357 125.119C778.003 125.119 781.459 124.362 784.726 122.847C787.993 121.331 790.739 119.248 792.965 116.597C795.238 113.898 796.682 110.773 797.297 107.222L798.931 96.8523C797.936 97.3731 796.682 97.8466 795.167 98.2727C793.651 98.6989 792.042 99.1013 790.337 99.4801C788.632 99.8116 786.881 100.143 785.081 100.474C783.329 100.759 781.649 101.019 780.039 101.256C776.63 101.777 773.67 102.581 771.161 103.67C768.651 104.759 766.639 106.18 765.124 107.932C763.656 109.636 762.757 111.672 762.425 114.04C761.857 117.591 762.685 120.337 764.911 122.278C767.136 124.172 770.285 125.119 774.357 125.119Z" fill="white"/>
</svg>
